#!OML:ASF F:\VICON\USERDATA\INSTALL\Justin_Nancy\Justin_Nancy.ASF
:FULLY-SPECIFIED
:DEGREES
31
root 0.925773 17.8332 -15.364 7.05111 -5.32754 0.760528
lowerback 3.70416 -0.98304 -2.9528
upperback -0.820116 -1.37966 2.67539
thorax -2.78874 -0.617189 4.50919
lowerneck -16.6505 -5.71957 -10.378
upperneck 19.3147 -6.60652 6.24644
head 9.4035 -3.18704 2.99105
rclavicle -1.70955e-014 -2.38542e-014
rhumerus -32.8309 -13.2692 -77.8158
rradius 32.6668
rwrist 4.74788
rhand -8.38759 14.7003
rfingers 7.12502
rthumb 17.5359 -14.5288
lclavicle -1.70955e-014 -2.38542e-014
lhumerus -31.4115 11.5013 83.9172
lradius 30.3442
lwrist -8.08328
lhand -11.1062 24.5925
lfingers 7.12502
lthumb 14.9182 54.0353
rfemur -12.4076 6.88093 18.968
rtibia 21.8677
rfoot -11.134 -9.49566
rtoes 4.8613
lfemur -9.80669 -3.19425 -20.04
ltibia 18.4128
lfoot -12.0199 8.11662
ltoes 0.0280558
32
root 0.927659 17.8349 -15.3697 7.00895 -5.19713 0.832538
lowerback 3.80717 -0.981806 -2.97008
upperback -0.838294 -1.38099 2.66464
thorax -2.86529 -0.615557 4.51092
lowerneck -16.6746 -5.44187 -10.4292
upperneck 19.6008 -6.23909 6.34494
head 9.47867 -3.01133 3.08861
rclavicle -3.27001e-014 -1.98785e-014
rhumerus -33.119 -12.8298 -77.8883
rradius 33.1165
rwrist 4.37031
rhand -8.54201 14.4659
rfingers 7.12502
rthumb 17.3873 -14.7764
lclavicle -3.27001e-014 -1.98785e-014
lhumerus -31.4921 11.6212 83.9098
lradius 30.3967
lwrist -8.44743
lhand -10.6088 25.8039
lfingers 7.12502
lthumb 15.3973 55.2105
rfemur -12.3626 6.69768 18.8974
rtibia 21.8619
rfoot -11.0775 -9.42881
rtoes 5.29427
lfemur -9.81467 -3.17347 -20.1294
ltibia 18.424
lfoot -12.0143 7.97826
ltoes 0.191771
33
root 0.928373 17.8347 -15.3767 6.98264 -5.13296 0.823525
lowerback 3.88749 -0.961021 -2.92836
upperback -0.858793 -1.3523 2.67363
thorax -2.9353 -0.599914 4.49747
lowerneck -16.6977 -5.21251 -10.5436
upperneck 19.9283 -5.93693 6.49875
head 9.57781 -2.86543 3.20782
rclavicle -1.27222e-014 -3.97569e-015
rhumerus -33.2165 -12.8222 -77.8328
rradius 33.1668
rwrist 4.35266
rhand -8.51766 14.5755
rfingers 7.12502
rthumb 17.4107 -14.6647
lclavicle -1.27222e-014 -3.97569e-015
lhumerus -31.4654 11.5936 83.9647
lradius 30.3417
lwrist -8.50586
lhand -10.2673 27.1113
lfingers 7.12502
lthumb 15.7262 56.4924
rfemur -12.3291 6.7132 18.903
rtibia 21.8239
rfoot -11.097 -9.43512
rtoes 5.61993
lfemur -9.86493 -3.16849 -20.1222
ltibia 18.4886
lfoot -11.9667 7.9682
ltoes -0.314434
34
root 0.926791 17.8358 -15.3789 6.94258 -5.12944 0.729347
lowerback 3.94443 -0.923081 -2.79717
upperback -0.859822 -1.29577 2.68052
thorax -2.97655 -0.572987 4.42829
lowerneck -16.5391 -5.00179 -10.5963
upperneck 20.007 -5.68167 6.63492
head 9.55716 -2.74011 3.30432
rclavicle 2.5842e-014 -1.66979e-014
rhumerus -33.2649 -12.859 -77.8157
rradius 33.1067
rwrist 4.29977
rhand -8.50686 14.9161
rfingers 7.12502
rthumb 17.4211 -14.3232
lclavicle 2.5842e-014 -1.66979e-014
lhumerus -31.4483 11.3918 84.0308
lradius 30.2393
lwrist -7.96093
lhand -10.9515 26.4755
lfingers 7.12502
lthumb 15.0672 55.9072
rfemur -12.2562 6.75922 19.0198
rtibia 21.7764
rfoot -11.1419 -9.46677
rtoes 5.56816
lfemur -9.87254 -3.08801 -20.0204
ltibia 18.5654
lfoot -11.9406 7.9451
ltoes -1.02224
35
root 0.925398 17.8376 -15.3806 6.90553 -5.10324 0.693111
lowerback 3.95407 -0.87964 -2.69894
upperback -0.815989 -1.2337 2.66017
thorax -2.94495 -0.545273 4.34698
lowerneck -16.5173 -4.78138 -10.5825
upperneck 20.0448 -5.39827 6.70802
head 9.5401 -2.60029 3.36891
rclavicle 1.68967e-015 -1.35174e-014
rhumerus -32.8177 -13.7305 -77.5918
rradius 32.2083
rwrist 5.08945
rhand -8.53585 15.6932
rfingers 7.12502
rthumb 17.3932 -13.5486
lclavicle 1.68967e-015 -1.35174e-014
lhumerus -31.3609 11.224 84.0912
lradius 30.142
lwrist -7.75088
lhand -11.3406 25.9068
lfingers 7.12502
lthumb 14.6924 55.3661
rfemur -12.1934 6.75083 19.0744
rtibia 21.7579
rfoot -11.182 -9.52358
rtoes 5.47617
lfemur -9.8383 -3.08971 -19.9765
ltibia 18.6171
lfoot -11.9787 7.90352
ltoes -1.23262
36
root 0.92422 17.8371 -15.3839 6.883 -5.00259 0.669432
lowerback 3.95472 -0.863094 -2.66456
upperback -0.78959 -1.20952 2.67788
thorax -2.92061 -0.534586 4.34404
lowerneck -16.6645 -4.61558 -10.4235
upperneck 20.1259 -5.15792 6.54623
head 9.56309 -2.49196 3.31856
rclavicle -2.08724e-015 -7.95139e-016
rhumerus -33.3889 -12.7218 -77.88
rradius 33.3655
rwrist 4.09423
rhand -8.49383 15.2481
rfingers 7.12502
rthumb 17.4336 -13.9901
lclavicle -2.08724e-015 -7.95139e-016
lhumerus -31.3021 11.2183 84.1168
lradius 30.1883
lwrist -8.33181
lhand -10.4063 26.8037
lfingers 7.12502
lthumb 15.5924 56.1953
rfemur -12.172 6.75788 19.1183
rtibia 21.784
rfoot -11.2034 -9.67585
rtoes 5.24086
lfemur -9.82208 -3.19732 -19.9214
ltibia 18.6539
lfoot -12.0296 7.86507
ltoes -0.818261
37
root 0.922146 17.8346 -15.3869 6.9196 -4.9429 0.685837
lowerback 3.93979 -0.846646 -2.71323
upperback -0.834994 -1.18904 2.69343
thorax -2.9599 -0.52181 4.38711
lowerneck -16.8347 -4.56437 -10.0791
upperneck 20.3276 -5.05459 6.06243
head 9.633 -2.46931 3.10532
rclavicle -1.59028e-014 -2.54444e-014
rhumerus -33.7039 -12.4064 -77.9256
rradius 33.7497
rwrist 3.79202
rhand -8.47512 15.1707
rfingers 7.12502
rthumb 17.4516 -14.0659
lclavicle -1.59028e-014 -2.54444e-014
lhumerus -31.3844 11.1681 84.1585
lradius 30.1711
lwrist -8.13335
lhand -10.6796 26.3443
lfingers 7.12502
lthumb 15.3291 55.7562
rfemur -12.2493 6.80506 19.107
rtibia 21.8468
rfoot -11.2254 -9.78425
rtoes 5.12721
lfemur -9.93092 -3.21633 -19.913
ltibia 18.6803
lfoot -12.0738 7.82973
ltoes -0.260878
38
root 0.920813 17.8327 -15.3906 6.98834 -4.9339 0.75519
lowerback 3.91103 -0.829561 -2.77414
upperback -0.86982 -1.16926 2.67046
thorax -2.98096 -0.51001 4.39646
lowerneck -17.1001 -4.52749 -9.8281
upperneck 20.659 -4.96394 5.67628
head 9.77389 -2.44938 2.94042
rclavicle -1.78906e-015 6.36111e-015
rhumerus -33.7762 -12.3559 -77.9568
rradius 33.8343
rwrist 3.74518
rhand -8.48722 14.9571
rfingers 7.12502
rthumb 17.44 -14.2806
lclavicle -1.78906e-015 6.36111e-015
lhumerus -31.4272 11.1351 84.1789
lradius 30.24
lwrist -7.97833
lhand -10.7333 26.7323
lfingers 7.12502
lthumb 15.2774 56.1481
rfemur -12.3923 6.78032 19.0236
rtibia 21.9381
rfoot -11.2792 -9.74778
rtoes 5.08742
lfemur -10.0678 -3.14813 -19.9879
ltibia 18.6765
lfoot -11.9962 7.77723
ltoes -0.0431585
39
root 0.92052 17.8291 -15.3924 6.97728 -4.86977 0.747203
lowerback 3.86115 -0.812658 -2.74822
upperback -0.782599 -1.14496 2.67375
thorax -2.86537 -0.50223 4.38105
lowerneck -17.5528 -4.44316 -9.73279
upperneck 21.0387 -4.80718 5.54631
head 9.97331 -2.38055 2.90003
rclavicle 2.96189e-014 -1.03368e-014
rhumerus -33.6754 -12.2952 -78.0071
rradius 33.9459
rwrist 3.62102
rhand -8.36069 14.5434
rfingers 7.12502
rthumb 17.5618 -14.6834
lclavicle 2.96189e-014 -1.03368e-014
lhumerus -31.3176 11.0995 84.2545
lradius 30.3422
lwrist -7.89718
lhand -10.7883 27.0385
lfingers 7.12502
lthumb 15.2244 56.4583
rfemur -12.428 6.73992 19.0454
rtibia 22.0293
rfoot -11.2986 -9.76745
rtoes 4.81872
lfemur -10.062 -3.1301 -19.9761
ltibia 18.6525
lfoot -11.9243 7.69397
ltoes -0.0112421
40
root 0.92041 17.8292 -15.3911 6.92694 -4.79473 0.828568
lowerback 3.82753 -0.786138 -2.80029
upperback -0.721209 -1.11241 2.65385
thorax -2.78555 -0.487978 4.38615
lowerneck -17.6532 -4.32666 -9.74544
upperneck 21.1776 -4.64084 5.57201
head 10.028 -2.30176 2.93611
rclavicle -1.61016e-014 -1.59028e-014
rhumerus -33.6673 -12.349 -77.971
rradius 34.0024
rwrist 3.6214
rhand -8.27902 14.2764
rfingers 7.12502
rthumb 17.6404 -14.9433
lclavicle -1.61016e-014 -1.59028e-014
lhumerus -31.3134 11.0663 84.3123
lradius 30.5095
lwrist -8.11154
lhand -10.4589 27.4572
lfingers 7.12502
lthumb 15.5417 56.8527
rfemur -12.4009 6.62059 18.966
rtibia 22.0967
rfoot -11.3021 -9.72094
rtoes 4.79198
lfemur -9.99063 -3.10912 -20.0651
ltibia 18.6414
lfoot -11.9884 7.57611
ltoes -0.151358
41
root 0.919326 17.833 -15.3915 6.88821 -4.72622 0.94595
lowerback 3.84837 -0.773227 -2.89173
upperback -0.709982 -1.1009 2.622
thorax -2.78579 -0.481139 4.40444
lowerneck -17.2291 -4.20673 -9.88649
upperneck 20.905 -4.51073 5.74863
head 9.84817 -2.23663 3.0422
rclavicle 2.82274e-014 -3.97569e-015
rhumerus -33.748 -12.35 -77.9525
rradius 34.0799
rwrist 3.61916
rhand -8.28592 14.232
rfingers 7.12502
rthumb 17.6337 -14.9883
lclavicle 2.82274e-014 -3.97569e-015
lhumerus -31.3498 11.0717 84.3119
lradius 30.5961
lwrist -8.45273
lhand -10.2768 27.3815
lfingers 7.12502
lthumb 15.717 56.7632
rfemur -12.3626 6.49199 18.8433
rtibia 22.1548
rfoot -11.4139 -9.692
rtoes 5.09358
lfemur -9.91545 -3.05402 -20.1964
ltibia 18.6084
lfoot -12.0737 7.44457
ltoes -0.620564
42
root 0.918729 17.8333 -15.3944 6.79695 -4.69741 1.0111
lowerback 3.90279 -0.745757 -2.9291
upperback -0.651753 -1.06798 2.59794
thorax -2.75924 -0.465815 4.39889
lowerneck -16.9784 -4.08902 -9.9338
upperneck 20.7594 -4.36674 5.8024
head 9.73949 -2.16998 3.09006
rclavicle 9.14409e-015 -3.26007e-014
rhumerus -33.7206 -12.414 -77.9313
rradius 34.052
rwrist 3.67455
rhand -8.27788 14.552
rfingers 7.12502
rthumb 17.6415 -14.6677
lclavicle 9.14409e-015 -3.26007e-014
lhumerus -31.2382 11.1087 84.295
lradius 30.443
lwrist -8.71725
lhand -10.4768 26.4682
lfingers 7.12502
lthumb 15.5245 55.865
rfemur -12.3051 6.44438 18.7848
rtibia 22.2244
rfoot -11.5046 -9.73592
rtoes 4.78874
lfemur -9.81323 -3.07113 -20.2811
ltibia 18.5431
lfoot -12.0064 7.45523
ltoes -1.16098
43
root 0.920353 17.8322 -15.3962 6.68883 -4.66941 1.0957
lowerback 4.01056 -0.709846 -2.95793
upperback -0.640269 -1.02435 2.56862
thorax -2.81232 -0.442773 4.38419
lowerneck -16.9418 -3.95895 -9.95189
upperneck 20.9227 -4.19457 5.82413
head 9.77584 -2.09183 3.12757
rclavicle 9.24349e-015 6.36111e-015
rhumerus -33.7464 -12.5297 -77.863
rradius 33.9523
rwrist 3.85373
rhand -8.40741 14.7201
rfingers 7.12502
rthumb 17.5168 -14.5107
lclavicle 9.24349e-015 6.36111e-015
lhumerus -31.1756 11.0641 84.3021
lradius 30.159
lwrist -8.86986
lhand -10.6703 25.8368
lfingers 7.12502
lthumb 15.3381 55.2479
rfemur -12.2517 6.31874 18.701
rtibia 22.3019
rfoot -11.5367 -9.69922
rtoes 4.36711
lfemur -9.70355 -3.02344 -20.3905
ltibia 18.5026
lfoot -11.9787 7.39119
ltoes -1.38244
